<svg width="256" height="256" viewBox="0 0 256 256" fill="none" xmlns="http://www.w3.org/2000/svg">
<circle cx="128" cy="128" r="118" fill="#CAFACB" stroke="black" stroke-width="20"/>
<path d="M119.348 166.92C114.398 166.92 110.196 165.981 106.74 164.104C103.326 162.184 100.724 159.645 98.9315 156.488C97.1822 153.288 96.3075 149.768 96.3075 145.928C96.3075 142.728 96.7982 139.805 97.7795 137.16C98.7608 134.515 100.34 132.189 102.516 130.184C104.734 128.136 107.7 126.429 111.412 125.064C113.972 124.125 117.022 123.293 120.564 122.568C124.105 121.843 128.116 121.16 132.596 120.52C137.076 119.837 142.004 119.091 147.38 118.28L141.108 121.736C141.108 117.64 140.126 114.632 138.164 112.712C136.201 110.792 132.916 109.832 128.308 109.832C125.748 109.832 123.081 110.451 120.308 111.688C117.534 112.925 115.593 115.123 114.484 118.28L98.7395 113.288C100.489 107.571 103.774 102.92 108.596 99.336C113.417 95.752 119.988 93.96 128.308 93.96C134.409 93.96 139.828 94.8987 144.564 96.776C149.3 98.6533 152.884 101.896 155.316 106.504C156.681 109.064 157.492 111.624 157.748 114.184C158.004 116.744 158.132 119.603 158.132 122.76V165H142.9V150.792L145.076 153.736C141.705 158.387 138.057 161.757 134.132 163.848C130.249 165.896 125.321 166.92 119.348 166.92ZM123.06 153.224C126.26 153.224 128.948 152.669 131.124 151.56C133.342 150.408 135.092 149.107 136.372 147.656C137.694 146.205 138.59 144.989 139.06 144.008C139.956 142.131 140.468 139.955 140.596 137.48C140.766 134.963 140.852 132.872 140.852 131.208L145.972 132.488C140.809 133.341 136.628 134.067 133.428 134.664C130.228 135.219 127.646 135.731 125.684 136.2C123.721 136.669 121.993 137.181 120.5 137.736C118.793 138.419 117.406 139.165 116.34 139.976C115.316 140.744 114.548 141.597 114.036 142.536C113.566 143.475 113.332 144.52 113.332 145.672C113.332 147.251 113.716 148.616 114.484 149.768C115.294 150.877 116.425 151.731 117.876 152.328C119.326 152.925 121.054 153.224 123.06 153.224Z" fill="black"/>
</svg>
